<svg width="257" height="178" viewBox="0 0 257 178" fill="none" xmlns="http://www.w3.org/2000/svg">
<path d="M31.68 156.6C28.64 156.6 26 156.04 23.76 154.92C21.6 153.8 19.96 152.12 18.84 149.88C17.72 147.72 17.16 145.12 17.16 142.08V118.8C17.16 115.52 16.56 113.16 15.36 111.72C14.24 110.2 12.16 109.4 9.12 109.32C7.6 109.24 6.4 108.64 5.52 107.52C4.64 106.4 4.2 105.04 4.2 103.44C4.2 101.84 4.64 100.52 5.52 99.48C6.4 98.36 7.6 97.76 9.12 97.68C12.16 97.52 14.24 96.72 15.36 95.28C16.56 93.76 17.16 91.4 17.16 88.2V64.92C17.16 60.28 18.4 56.72 20.88 54.24C23.44 51.68 27.04 50.4 31.68 50.4H40.2C42.04 50.4 43.52 50.96 44.64 52.08C45.84 53.12 46.44 54.44 46.44 56.04C46.44 57.64 45.96 59 45 60.12C44.04 61.16 42.76 61.68 41.16 61.68H36.96C35.36 61.68 34.16 62.12 33.36 63C32.56 63.88 32.16 65.2 32.16 66.96V90C32.16 92.48 31.64 94.76 30.6 96.84C29.56 98.92 28.16 100.6 26.4 101.88C24.72 103.16 22.8 103.8 20.64 103.8V103.32C22.8 103.32 24.72 103.96 26.4 105.24C28.16 106.44 29.56 108.08 30.6 110.16C31.64 112.24 32.16 114.52 32.16 117V140.04C32.16 141.8 32.56 143.12 33.36 144C34.16 144.88 35.36 145.32 36.96 145.32H41.16C42.76 145.32 44.04 145.84 45 146.88C45.96 148 46.44 149.36 46.44 150.96C46.44 152.56 45.84 153.88 44.64 154.92C43.52 156.04 42.04 156.6 40.2 156.6H31.68ZM216.486 156.6C214.726 156.6 213.246 156.04 212.046 154.92C210.846 153.88 210.246 152.56 210.246 150.96C210.246 149.36 210.726 148 211.686 146.88C212.646 145.84 213.926 145.32 215.526 145.32H219.726C221.326 145.32 222.526 144.88 223.326 144C224.126 143.12 224.526 141.8 224.526 140.04V117C224.526 114.52 225.046 112.24 226.086 110.16C227.126 108.08 228.526 106.4 230.286 105.12C232.046 103.84 233.966 103.2 236.046 103.2V103.68C233.966 103.68 232.046 103.08 230.286 101.88C228.526 100.6 227.126 98.92 226.086 96.84C225.046 94.76 224.526 92.48 224.526 90V66.96C224.526 65.2 224.126 63.88 223.326 63C222.526 62.12 221.326 61.68 219.726 61.68H215.526C213.926 61.68 212.646 61.16 211.686 60.12C210.726 59 210.246 57.64 210.246 56.04C210.246 54.44 210.846 53.12 212.046 52.08C213.246 50.96 214.726 50.4 216.486 50.4H225.006C228.126 50.4 230.766 50.96 232.926 52.08C235.086 53.2 236.726 54.84 237.846 57C238.966 59.16 239.526 61.8 239.526 64.92V88.2C239.526 91.4 240.126 93.76 241.326 95.28C242.526 96.72 244.606 97.52 247.566 97.68C249.166 97.76 250.366 98.36 251.166 99.48C252.046 100.6 252.486 101.96 252.486 103.56C252.486 105.08 252.046 106.4 251.166 107.52C250.366 108.64 249.166 109.24 247.566 109.32C244.606 109.4 242.526 110.2 241.326 111.72C240.126 113.16 239.526 115.52 239.526 118.8V142.08C239.526 146.72 238.246 150.28 235.686 152.76C233.206 155.32 229.646 156.6 225.006 156.6H216.486Z" fill="#E5E7EB"/>
<path d="M91.16 143.8C86.84 143.8 82.64 143.4 78.56 142.6C74.56 141.8 70.92 140.56 67.64 138.88C66.12 138.08 65.08 137.12 64.52 136C64.04 134.88 63.88 133.72 64.04 132.52C64.28 131.4 64.76 130.4 65.48 129.52C66.28 128.64 67.24 128.04 68.36 127.72C69.48 127.4 70.64 127.56 71.84 128.2C75.36 129.96 78.68 131.08 81.8 131.56C85 132.12 87.72 132.4 89.96 132.4C95.32 132.4 99.32 131.08 101.96 128.44C104.68 125.88 106.04 122.04 106.04 116.92V106.12H107.12C105.92 110.2 103.4 113.48 99.56 115.96C95.8 118.36 91.52 119.56 86.72 119.56C81.44 119.56 76.84 118.36 72.92 115.96C69 113.48 65.96 110.04 63.8 105.64C61.64 101.24 60.56 96.12 60.56 90.28C60.56 85.88 61.16 81.92 62.36 78.4C63.64 74.8 65.4 71.72 67.64 69.16C69.96 66.6 72.72 64.64 75.92 63.28C79.2 61.84 82.8 61.12 86.72 61.12C91.68 61.12 96 62.36 99.68 64.84C103.44 67.24 105.88 70.44 107 74.44L105.8 77.44V68.92C105.8 66.44 106.44 64.56 107.72 63.28C109.08 62 110.92 61.36 113.24 61.36C115.64 61.36 117.48 62 118.76 63.28C120.04 64.56 120.68 66.44 120.68 68.92V115.12C120.68 124.64 118.16 131.8 113.12 136.6C108.08 141.4 100.76 143.8 91.16 143.8ZM90.8 108.16C93.92 108.16 96.6 107.44 98.84 106C101.08 104.56 102.8 102.52 104 99.88C105.28 97.16 105.92 93.96 105.92 90.28C105.92 84.76 104.56 80.44 101.84 77.32C99.12 74.12 95.44 72.52 90.8 72.52C87.68 72.52 85 73.24 82.76 74.68C80.52 76.12 78.76 78.16 77.48 80.8C76.28 83.44 75.68 86.6 75.68 90.28C75.68 95.8 77.04 100.16 79.76 103.36C82.48 106.56 86.16 108.16 90.8 108.16ZM163.582 143.8C159.262 143.8 155.062 143.4 150.982 142.6C146.982 141.8 143.342 140.56 140.062 138.88C138.542 138.08 137.502 137.12 136.942 136C136.462 134.88 136.302 133.72 136.462 132.52C136.702 131.4 137.182 130.4 137.902 129.52C138.702 128.64 139.662 128.04 140.782 127.72C141.902 127.4 143.062 127.56 144.262 128.2C147.782 129.96 151.102 131.08 154.222 131.56C157.422 132.12 160.142 132.4 162.382 132.4C167.742 132.4 171.742 131.08 174.382 128.44C177.102 125.88 178.462 122.04 178.462 116.92V106.12H179.542C178.342 110.2 175.822 113.48 171.982 115.96C168.222 118.36 163.942 119.56 159.142 119.56C153.862 119.56 149.262 118.36 145.342 115.96C141.422 113.48 138.382 110.04 136.222 105.64C134.062 101.24 132.982 96.12 132.982 90.28C132.982 85.88 133.582 81.92 134.782 78.4C136.062 74.8 137.822 71.72 140.062 69.16C142.382 66.6 145.142 64.64 148.342 63.28C151.622 61.84 155.222 61.12 159.142 61.12C164.102 61.12 168.422 62.36 172.102 64.84C175.862 67.24 178.302 70.44 179.422 74.44L178.222 77.44V68.92C178.222 66.44 178.862 64.56 180.142 63.28C181.502 62 183.342 61.36 185.662 61.36C188.062 61.36 189.902 62 191.182 63.28C192.462 64.56 193.102 66.44 193.102 68.92V115.12C193.102 124.64 190.582 131.8 185.542 136.6C180.502 141.4 173.182 143.8 163.582 143.8ZM163.222 108.16C166.342 108.16 169.022 107.44 171.262 106C173.502 104.56 175.222 102.52 176.422 99.88C177.702 97.16 178.342 93.96 178.342 90.28C178.342 84.76 176.982 80.44 174.262 77.32C171.542 74.12 167.862 72.52 163.222 72.52C160.102 72.52 157.422 73.24 155.182 74.68C152.942 76.12 151.182 78.16 149.902 80.8C148.702 83.44 148.102 86.6 148.102 90.28C148.102 95.8 149.462 100.16 152.182 103.36C154.902 106.56 158.582 108.16 163.222 108.16Z" fill="#0066FF"/>
</svg>
