<svg width="50" height="50" viewBox="0 0 50 50" fill="none" xmlns="http://www.w3.org/2000/svg">
<path d="M8.28 34.6C7.77333 34.6 7.33333 34.5067 6.96 34.32C6.6 34.1333 6.32667 33.8533 6.14 33.48C5.95333 33.12 5.86 32.6867 5.86 32.18V28.3C5.86 27.7533 5.76 27.36 5.56 27.12C5.37333 26.8667 5.02667 26.7333 4.52 26.72C4.26667 26.7067 4.06667 26.6067 3.92 26.42C3.77333 26.2333 3.7 26.0067 3.7 25.74C3.7 25.4733 3.77333 25.2533 3.92 25.08C4.06667 24.8933 4.26667 24.7933 4.52 24.78C5.02667 24.7533 5.37333 24.62 5.56 24.38C5.76 24.1267 5.86 23.7333 5.86 23.2V19.32C5.86 18.5467 6.06667 17.9533 6.48 17.54C6.90667 17.1133 7.50667 16.9 8.28 16.9H9.7C10.0067 16.9 10.2533 16.9933 10.44 17.18C10.64 17.3533 10.74 17.5733 10.74 17.84C10.74 18.1067 10.66 18.3333 10.5 18.52C10.34 18.6933 10.1267 18.78 9.86 18.78H9.16C8.89333 18.78 8.69333 18.8533 8.56 19C8.42667 19.1467 8.36 19.3667 8.36 19.66V23.5C8.36 23.9133 8.27333 24.2933 8.1 24.64C7.92667 24.9867 7.69333 25.2667 7.4 25.48C7.12 25.6933 6.8 25.8 6.44 25.8V25.72C6.8 25.72 7.12 25.8267 7.4 26.04C7.69333 26.24 7.92667 26.5133 8.1 26.86C8.27333 27.2067 8.36 27.5867 8.36 28V31.84C8.36 32.1333 8.42667 32.3533 8.56 32.5C8.69333 32.6467 8.89333 32.72 9.16 32.72H9.86C10.1267 32.72 10.34 32.8067 10.5 32.98C10.66 33.1667 10.74 33.3933 10.74 33.66C10.74 33.9267 10.64 34.1467 10.44 34.32C10.2533 34.5067 10.0067 34.6 9.7 34.6H8.28ZM39.0809 34.6C38.7876 34.6 38.5409 34.5067 38.3409 34.32C38.1409 34.1467 38.0409 33.9267 38.0409 33.66C38.0409 33.3933 38.1209 33.1667 38.2809 32.98C38.4409 32.8067 38.6543 32.72 38.9209 32.72H39.6209C39.8876 32.72 40.0876 32.6467 40.2209 32.5C40.3543 32.3533 40.4209 32.1333 40.4209 31.84V28C40.4209 27.5867 40.5076 27.2067 40.6809 26.86C40.8543 26.5133 41.0876 26.2333 41.3809 26.02C41.6743 25.8067 41.9943 25.7 42.3409 25.7V25.78C41.9943 25.78 41.6743 25.68 41.3809 25.48C41.0876 25.2667 40.8543 24.9867 40.6809 24.64C40.5076 24.2933 40.4209 23.9133 40.4209 23.5V19.66C40.4209 19.3667 40.3543 19.1467 40.2209 19C40.0876 18.8533 39.8876 18.78 39.6209 18.78H38.9209C38.6543 18.78 38.4409 18.6933 38.2809 18.52C38.1209 18.3333 38.0409 18.1067 38.0409 17.84C38.0409 17.5733 38.1409 17.3533 38.3409 17.18C38.5409 16.9933 38.7876 16.9 39.0809 16.9H40.5009C41.0209 16.9 41.4609 16.9933 41.8209 17.18C42.1809 17.3667 42.4543 17.64 42.6409 18C42.8276 18.36 42.9209 18.8 42.9209 19.32V23.2C42.9209 23.7333 43.0209 24.1267 43.2209 24.38C43.4209 24.62 43.7676 24.7533 44.2609 24.78C44.5276 24.7933 44.7276 24.8933 44.8609 25.08C45.0076 25.2667 45.0809 25.4933 45.0809 25.76C45.0809 26.0133 45.0076 26.2333 44.8609 26.42C44.7276 26.6067 44.5276 26.7067 44.2609 26.72C43.7676 26.7333 43.4209 26.8667 43.2209 27.12C43.0209 27.36 42.9209 27.7533 42.9209 28.3V32.18C42.9209 32.9533 42.7076 33.5467 42.2809 33.96C41.8676 34.3867 41.2743 34.6 40.5009 34.6H39.0809Z" fill="#444B54"/>
<path d="M17.86 32.8C17.14 32.8 16.44 32.7333 15.76 32.6C15.0933 32.4667 14.4867 32.26 13.94 31.98C13.6867 31.8467 13.5133 31.6867 13.42 31.5C13.34 31.3133 13.3133 31.12 13.34 30.92C13.38 30.7333 13.46 30.5667 13.58 30.42C13.7133 30.2733 13.8733 30.1733 14.06 30.12C14.2467 30.0667 14.44 30.0933 14.64 30.2C15.2267 30.4933 15.78 30.68 16.3 30.76C16.8333 30.8533 17.2867 30.9 17.66 30.9C18.5533 30.9 19.22 30.68 19.66 30.24C20.1133 29.8133 20.34 29.1733 20.34 28.32V26.52H20.52C20.32 27.2 19.9 27.7467 19.26 28.16C18.6333 28.56 17.92 28.76 17.12 28.76C16.24 28.76 15.4733 28.56 14.82 28.16C14.1667 27.7467 13.66 27.1733 13.3 26.44C12.94 25.7067 12.76 24.8533 12.76 23.88C12.76 23.1467 12.86 22.4867 13.06 21.9C13.2733 21.3 13.5667 20.7867 13.94 20.36C14.3267 19.9333 14.7867 19.6067 15.32 19.38C15.8667 19.14 16.4667 19.02 17.12 19.02C17.9467 19.02 18.6667 19.2267 19.28 19.64C19.9067 20.04 20.3133 20.5733 20.5 21.24L20.3 21.74V20.32C20.3 19.9067 20.4067 19.5933 20.62 19.38C20.8467 19.1667 21.1533 19.06 21.54 19.06C21.94 19.06 22.2467 19.1667 22.46 19.38C22.6733 19.5933 22.78 19.9067 22.78 20.32V28.02C22.78 29.6067 22.36 30.8 21.52 31.6C20.68 32.4 19.46 32.8 17.86 32.8ZM17.8 26.86C18.32 26.86 18.7667 26.74 19.14 26.5C19.5133 26.26 19.8 25.92 20 25.48C20.2133 25.0267 20.32 24.4933 20.32 23.88C20.32 22.96 20.0933 22.24 19.64 21.72C19.1867 21.1867 18.5733 20.92 17.8 20.92C17.28 20.92 16.8333 21.04 16.46 21.28C16.0867 21.52 15.7933 21.86 15.58 22.3C15.38 22.74 15.28 23.2667 15.28 23.88C15.28 24.8 15.5067 25.5267 15.96 26.06C16.4133 26.5933 17.0267 26.86 17.8 26.86ZM29.9498 32.8C29.2298 32.8 28.5298 32.7333 27.8498 32.6C27.1832 32.4667 26.5765 32.26 26.0298 31.98C25.7765 31.8467 25.6032 31.6867 25.5098 31.5C25.4298 31.3133 25.4032 31.12 25.4298 30.92C25.4698 30.7333 25.5498 30.5667 25.6698 30.42C25.8032 30.2733 25.9632 30.1733 26.1498 30.12C26.3365 30.0667 26.5298 30.0933 26.7298 30.2C27.3165 30.4933 27.8698 30.68 28.3898 30.76C28.9232 30.8533 29.3765 30.9 29.7498 30.9C30.6432 30.9 31.3098 30.68 31.7498 30.24C32.2032 29.8133 32.4298 29.1733 32.4298 28.32V26.52H32.6098C32.4098 27.2 31.9898 27.7467 31.3498 28.16C30.7232 28.56 30.0098 28.76 29.2098 28.76C28.3298 28.76 27.5632 28.56 26.9098 28.16C26.2565 27.7467 25.7498 27.1733 25.3898 26.44C25.0298 25.7067 24.8498 24.8533 24.8498 23.88C24.8498 23.1467 24.9498 22.4867 25.1498 21.9C25.3632 21.3 25.6565 20.7867 26.0298 20.36C26.4165 19.9333 26.8765 19.6067 27.4098 19.38C27.9565 19.14 28.5565 19.02 29.2098 19.02C30.0365 19.02 30.7565 19.2267 31.3698 19.64C31.9965 20.04 32.4032 20.5733 32.5898 21.24L32.3898 21.74V20.32C32.3898 19.9067 32.4965 19.5933 32.7098 19.38C32.9365 19.1667 33.2432 19.06 33.6298 19.06C34.0298 19.06 34.3365 19.1667 34.5498 19.38C34.7632 19.5933 34.8698 19.9067 34.8698 20.32V28.02C34.8698 29.6067 34.4498 30.8 33.6098 31.6C32.7698 32.4 31.5498 32.8 29.9498 32.8ZM29.8898 26.86C30.4098 26.86 30.8565 26.74 31.2298 26.5C31.6032 26.26 31.8898 25.92 32.0898 25.48C32.3032 25.0267 32.4098 24.4933 32.4098 23.88C32.4098 22.96 32.1832 22.24 31.7298 21.72C31.2765 21.1867 30.6632 20.92 29.8898 20.92C29.3698 20.92 28.9232 21.04 28.5498 21.28C28.1765 21.52 27.8832 21.86 27.6698 22.3C27.4698 22.74 27.3698 23.2667 27.3698 23.88C27.3698 24.8 27.5965 25.5267 28.0498 26.06C28.5032 26.5933 29.1165 26.86 29.8898 26.86Z" fill="#0066FF"/>
</svg>
